<svg height="308pt" preserveAspectRatio="xMidYMid meet" viewBox="0 0 316 308" width="316pt" xmlns="http://www.w3.org/2000/svg"><g transform="matrix(.1 0 0 -.1 0 308)"><path d="m1386 3052c-4-7-24-12-44-12s-75-14-122-30c-46-17-93-30-105-30-11 0-33-7-50-16-16-8-50-20-75-25s-62-19-81-31c-18-12-40-23-47-24-28-5-42-14-42-26 0-7-23-24-51-38-28-13-53-30-56-37s-10-13-15-13c-6 0-34-19-62-43-28-23-64-51-81-62-45-28-170-151-234-230-31-38-91-122-134-185-65-97-82-131-107-217-17-56-30-105-29-110 1-4-1-17-5-28s-12-32-18-47-10-50-9-78c1-27 1-56 0-62 0-7-2-65-4-128-2-101 1-122 22-179 24-64 50-183 51-231 2-81 41-205 88-280 12-19 25-51 29-70s18-49 31-67c57-76 434-460 555-565 55-48 75-59 134-73 39-9 82-23 97-31 14-8 31-14 37-14s33-14 59-30c49-30 50-30 193-30 128 1 152 4 214 26 39 14 76 26 83 27 7 2 17 8 23 14s17 9 24 7c7-3 15 4 18 15 2 10 19 27 37 36l31 16-12-23c-6-13-18-30-26-40-22-24-4-28 57-11 30 8 96 21 145 29 147 23 157 26 199 55 21 16 44 29 50 29 5 0 39 15 74 33 45 22 66 28 69 20 6-15 105 36 146 75 15 15 36 27 45 27 10 0 16 7 16 17-1 10 2 15 8 12 5-3 39 21 76 53 36 32 75 65 85 73 51 43 126 121 157 164 19 26 44 52 55 56s35 37 54 73c18 36 38 68 43 69 14 5 48 97 48 130 0 30 34 115 57 140 9 10 12 22 7 30-11 17-5 49 12 69 9 10 18 54 23 115 5 55 12 107 16 116 4 10 2 40-5 68-10 42-9 57 5 100 19 57 22 33-39 280-55 220-98 333-172 446-21 32-44 72-51 87s-31 47-53 69c-22 23-40 45-40 50 0 14-52 70-129 141-52 48-204 147-224 147-9 0-19 5-23 11-4 7-53 34-110 60-56 27-105 53-109 58-3 5-31 15-63 21-31 7-75 18-97 25-41 13-132 20-456 31-136 5-188 4-193-4zm359-441 40-8-28-12c-20-8-46-8-88-2-32 6-76 8-96 6-31-4-34-3-13 4l25 9-27 1c-16 1-28 5-28 10 0 10 156 5 215-8zm-257-27c-11-12-21-13-33-7-19 11-65 5-65-8 0-5 8-9 17-9s24-7 34-16c17-15 23-15 84 4 56 17 66 18 61 5-5-12-1-14 16-9 65 20 94 23 185 19 55-3 111-11 127-19s37-14 47-14 26-8 36-18c26-27 129-82 153-82 27 0 92-42 154-99 49-45 49-45 22-8-22 29-25 37-13 37 16 0 72-69 117-145 13-22 44-67 68-101 58-79 107-216 127-357 9-60 21-122 27-136 5-14 11-55 12-91s6-73 10-83c26-57-58-377-135-516-63-112-202-280-271-326-24-16-62-46-84-66-23-21-71-56-108-79-36-23-75-55-87-71-11-16-25-27-29-24-11 7-62-18-106-51-41-32-44-30-31 11 8 29 7 38-6 53-10 10-17 31-17 45 0 20-6 28-25 33-13 3-29 12-35 19-6 8-26 17-43 21-17 3-41 13-52 20s-59 16-106 20c-75 5-88 3-104-13-13-13-20-14-23-5-2 6-14 12-26 12-33 0-40 12-14 27l23 12-26 1c-15 0-32-7-39-15-12-14-17-13-42 12-27 26-30 26-39 11-10-19-59-25-59-8 0 5-24 21-54 35s-82 53-117 88c-103 102-243 250-261 277-14 20-17 21-17 8-1-10-5-18-10-18-17 0-111 109-111 129 0 12-4 21-10 21-18 0-32 86-32 203 0 70-4 117-10 117s-7 11-4 25c7 28 7 29-28 16-38-15-50 7-33 57 13 37 13 41-6 57-16 14-18 24-12 73 4 31 13 64 21 73s14 37 14 70c0 30 3 64 6 77 9 32 26 27 18-5-8-33 10-20 21 15 5 16 2 22-9 22-21 0-21 0 11 66 14 30 37 62 49 71 13 8 33 30 45 49 28 46 187 186 293 259 49 33 96 66 106 73 17 13 62 31 185 76 74 28 98 40 115 62 20 23 48 33 100 33 41 1 43 0 28-15zm-798-1689c0-20 10-19 26 2 17 24 24 14 28-43l4-49-39 44c-39 44-47 61-29 61 6 0 10-7 10-15z"/><path d="m1860 2540c0-5 9-10 21-10 11 0 17 5 14 10-3 6-13 10-21 10s-14-4-14-10z"/><path d="m1352 2510c-12-5-29-7-37-4-8 4-15 1-15-5 0-15 40-13 70 4 28 16 17 19-18 5z"/><path d="m840 1900v-60h119c66 0 122-3 124-7 2-5-54-138-124-297-113-254-129-295-129-342v-54h215 215v60 60h-124c-69 0-127 4-130 8-3 5 53 139 124 298 120 267 130 293 126 339l-3 50-207 3-206 2z"/><path d="m1355 1947c-3-6-4-190-3-407l3-395 203-3 202-2v59 60l-127 3-128 3-3 112-3 112 118 3 118 3 3 63 3 62h-121-121l3 108 3 107 128 3 127 3v59 60h-200c-152 0-202-3-205-13z"/><path d="m1860 1550v-410h70 70l1 248v247l30-60c16-33 66-143 112-245l82-185 73-3 72-3v411 410h-70-70v-246c0-135-3-243-7-240-5 2-55 113-113 245l-105 241h-72-73z"/><path d="m510 1695c0-8 5-15 10-15 6 0 10 7 10 15s-4 15-10 15c-5 0-10-7-10-15z"/><path d="m606 1308c-12-38-13-59-4-64 14-9 28 15 28 49 0 27-17 38-24 15z"/><path d="m627 1198c8-44 13-48 13-10 0 17-4 34-10 37-6 4-7-6-3-27z"/></g></svg>